# xmcd
#
# Track frame offsets:
#	150
#	11197
#	22957
#	35372
#	49210
#	61925
#	73717
#	85817
#	97042
#	111732
#
# Disc length: 1634 seconds
#
# Revision: 0
# Processed by: cddbd v1.5.1PL2 Copyright (c) Steve Scherf et al.
# Submitted via: audiograbber 1.82.02
#
DISCID=8706600a
DTITLE=Jerry Wallace - Greatest Hits
DYEAR=1900
DGENRE=Country
TTITLE0=Primrose Lane
TTITLE1=If You Leave Me Tonight I'll Cry
TTITLE2=In the Misty Moonlight
TTITLE3=Do You Know What It's Like to Be Lonesome
TTITLE4=To Get to You
TTITLE5=Life's Gone and Slipped Away
TTITLE6=Shutters and Boards
TTITLE7=There She Goes
TTITLE8=Don't Give up on Me
TTITLE9=How the Time Flies
EXTD=
EXTT0=
EXTT1=
EXTT2=
EXTT3=
EXTT4=
EXTT5=
EXTT6=
EXTT7=
EXTT8=
EXTT9=
PLAYORDER=
